v -0.3538449054019301 -0.03419232722061504 -0.3087796303442335
v -0.3538449054019301 0.023524330218707326 -0.3087796303442335
v -0.3538449054019301 -0.03419232722061504 -0.38329922971013025
v -0.3538449054019301 0.023524330218707326 -0.38329922971013025
v -0.3515744020839819 -0.03419232722061504 -0.3087796303442335
v -0.3515744020839819 0.023524330218707326 -0.3087796303442335
v -0.3515744020839819 -0.03419232722061504 -0.38329922971013025
v -0.3515744020839819 0.023524330218707326 -0.38329922971013025
v -0.4051694842765406 -0.03419232722061504 -0.3105966619375296
v -0.4051694842765406 0.023524330218707326 -0.3105966619375296
v -0.4051694842765406 -0.03419232722061504 -0.3851162613034264
v -0.4051694842765406 0.023524330218707326 -0.3851162613034264
v -0.4028989753330205 -0.03419232722061504 -0.3105966619375296
v -0.4028989753330205 0.023524330218707326 -0.3105966619375296
v -0.4028989753330205 -0.03419232722061504 -0.3851162613034264
v -0.4028989753330205 0.023524330218707326 -0.3851162613034264
v -0.4050791094640937 -0.03392959051096535 -0.31264063472652587
v -0.4050791094640937 0.023787072553928913 -0.31264063472652587
v -0.6478423329966709 -0.03392959051096535 -0.31264064597766966
v -0.6478423329966709 0.023787072553928913 -0.31264064597766966
v -0.4050791094640937 -0.03392959051096535 -0.3103701370341495
v -0.4050791094640937 0.023787072553928913 -0.3103701370341495
v -0.6478423329966709 -0.03392959051096535 -0.3103701482852933
v -0.6478423329966709 0.023787072553928913 -0.3103701482852933
v 0.5723724395244693 -0.02188810450602402 0.037095887394727634
v 0.5723724395244693 0.035828558558870245 0.037095887394727634
v 0.15855534301207355 -0.02188810450602402 0.03709584801572441
v 0.15855534301207355 0.035828558558870245 0.03709584801572441
v 0.5723724395244693 -0.02188810450602402 0.03936638508710401
v 0.5723724395244693 0.035828558558870245 0.03936638508710401
v 0.15855534301207355 -0.02188810450602402 0.0393663400825289
v 0.15855534301207355 0.035828558558870245 0.0393663400825289
v -0.05645078000101314 -0.035616210096658295 -0.24441736669173703
v -0.05645078000101314 0.022100452968235967 -0.24441736669173703
v -0.05645078000101314 -0.035616210096658295 0.021096282759920256
v -0.05645078000101314 0.022100452968235967 0.021096282759920256
v -0.054180282308636814 -0.035616210096658295 -0.24441736669173703
v -0.054180282308636814 0.022100452968235967 -0.24441736669173703
v -0.054180282308636814 -0.035616210096658295 0.021096282759920256
v -0.054180282308636814 0.022100452968235967 0.021096282759920256
v -0.5658249151572343 -0.035301363714571876 -0.24517784275125795
v -0.5658249151572343 0.02241529935032239 -0.24517784275125795
v -0.05423946895051382 -0.035301363714571876 -0.24517782024897034
v -0.05423946895051382 0.02241529935032239 -0.24517782024897034
v -0.5658249151572343 -0.035301363714571876 -0.24290734505888156
v -0.5658249151572343 0.02241529935032239 -0.24290734505888156
v -0.05423946895051382 -0.035301363714571876 -0.2429073281821659
v -0.05423946895051382 0.02241529935032239 -0.2429073281821659
v -0.054642957468904435 -0.035838431437540924 0.021162675759391025
v -0.054642957468904435 0.02187823162735334 0.021162675759391025
v -0.46846001460229697 -0.035838431437540924 0.0211626363803878
v -0.46846001460229697 0.02187823162735334 0.0211626363803878
v -0.054642957468904435 -0.035838431437540924 0.023433173451767392
v -0.054642957468904435 0.02187823162735334 0.023433173451767392
v -0.46846001460229697 -0.035838431437540924 0.023433128447192288
v -0.46846001460229697 0.02187823162735334 0.023433128447192288
v 0.048564453907031464 -0.02187822600178145 -0.22842550846942505
v 0.048564453907031464 0.035838431437540924 -0.22842550846942505
v 0.048564453907031464 -0.02187822600178145 0.037088163484519744
v 0.048564453907031464 0.035838431437540924 0.037088163484519744
v 0.05083499097841106 -0.02187822600178145 -0.22842550846942505
v 0.05083499097841106 0.035838431437540924 -0.22842550846942505
v 0.05083499097841106 -0.02187822600178145 0.037088163484519744
v 0.05083499097841106 0.035838431437540924 0.037088163484519744
v 0.15639665356105312 -0.02187822600178145 -0.22842550846942505
v 0.15639665356105312 0.035838431437540924 -0.22842550846942505
v 0.15639665356105312 -0.02187822600178145 0.037088163484519744
v 0.15639665356105312 0.035838431437540924 0.037088163484519744
v 0.1586671906324327 -0.02187822600178145 -0.22842550846942505
v 0.1586671906324327 0.035838431437540924 -0.22842550846942505
v 0.1586671906324327 -0.02187822600178145 0.037088163484519744
v 0.1586671906324327 0.035838431437540924 0.037088163484519744
v -0.3515803989436188 -0.03414160143886377 -0.3109484795780911
v -0.3515803989436188 0.02357506162603049 -0.3109484795780911
v 0.6473487059398529 -0.03414160143886377 -0.31094844019908785
v 0.6473487059398529 0.02357506162603049 -0.31094844019908785
v -0.3515803989436188 -0.03414160143886377 -0.30867798188571477
v -0.3515803989436188 0.02357506162603049 -0.30867798188571477
v 0.6473487059398529 -0.03414160143886377 -0.3086779368811396
v 0.6473487059398529 0.02357506162603049 -0.3086779368811396
v -0.6501613231187574 -0.03378207676481011 -0.31672244280558404
v -0.6501613231187574 0.02393458630008415 -0.31672244280558404
v -0.6501613231187574 -0.03378207676481011 0.3851162613034264
v -0.6501613231187574 0.02393458630008415 0.3851162613034264
v -0.647890831051953 -0.03378207676481011 -0.31672244280558404
v -0.647890831051953 0.02393458630008415 -0.31672244280558404
v -0.647890831051953 -0.03378207676481011 0.3851162613034264
v -0.647890831051953 0.02393458630008415 0.3851162613034264
v 0.6478908704309563 -0.03389235485061139 0.3812823271730791
v 0.6478908704309563 0.02382430821428287 0.3812823271730791
v 0.6478908704309563 -0.03389235485061139 -0.3101382790886157
v 0.6478908704309563 0.02382430821428287 -0.3101382790886157
v 0.6501613231187574 -0.03389235485061139 0.3812823271730791
v 0.6501613231187574 0.02382430821428287 0.3812823271730791
v 0.6501613231187574 -0.03389235485061139 -0.3101382790886157
v 0.6501613231187574 0.02382430821428287 -0.3101382790886157
v 0.6484455630706634 -0.03414160143886377 0.3823985812757734
v 0.6484455630706634 0.02357506162603049 0.3823985812757734
v -0.649649615473878 -0.03414160143886377 0.38239849689219507
v -0.649649615473878 0.02357506162603049 0.38239849689219507
v 0.6484455630706634 -0.03414160143886377 0.38466912397272496
v 0.6484455630706634 0.02357506162603049 0.38466912397272496
v -0.649649615473878 -0.03414160143886377 0.3846690339635746
v -0.649649615473878 0.02357506162603049 0.3846690339635746
# Blender 4.0.2
# www.blender.org
mtllib maze_runner_map.mtl
o Cube
vn -1.0000 -0.0000 -0.0000
vn -0.0000 -0.0000 -1.0000
vn 1.0000 -0.0000 -0.0000
vn -0.0000 -0.0000 1.0000
vn -0.0000 -1.0000 -0.0000
vn -0.0000 1.0000 -0.0000
vt 0.625000 0.000000
vt 0.375000 0.250000
vt 0.375000 0.000000
vt 0.625000 0.250000
vt 0.375000 0.500000
vt 0.625000 0.500000
vt 0.375000 0.750000
vt 0.625000 0.750000
vt 0.375000 1.000000
vt 0.125000 0.750000
vt 0.125000 0.500000
vt 0.875000 0.500000
vt 0.625000 1.000000
vt 0.875000 0.750000
s 0
f 2/1/1 3/2/1 1/3/1
f 4/4/2 7/5/2 3/2/2
f 8/6/3 5/7/3 7/5/3
f 6/8/4 1/9/4 5/7/4
f 7/5/5 1/10/5 3/11/5
f 4/12/6 6/8/6 8/6/6
f 2/1/1 4/4/1 3/2/1
f 4/4/2 8/6/2 7/5/2
f 8/6/3 6/8/3 5/7/3
f 6/8/4 2/13/4 1/9/4
f 7/5/5 5/7/5 1/10/5
f 4/12/6 2/14/6 6/8/6
o Cube.001
vn -1.0000 -0.0000 -0.0000
vn -0.0000 -0.0000 -1.0000
vn 1.0000 -0.0000 -0.0000
vn -0.0000 -0.0000 1.0000
vn -0.0000 -1.0000 -0.0000
vn -0.0000 1.0000 -0.0000
vt 0.625000 0.000000
vt 0.375000 0.250000
vt 0.375000 0.000000
vt 0.625000 0.250000
vt 0.375000 0.500000
vt 0.625000 0.500000
vt 0.375000 0.750000
vt 0.625000 0.750000
vt 0.375000 1.000000
vt 0.125000 0.750000
vt 0.125000 0.500000
vt 0.875000 0.500000
vt 0.625000 1.000000
vt 0.875000 0.750000
s 0
f 10/15/7 11/16/7 9/17/7
f 12/18/8 15/19/8 11/16/8
f 16/20/9 13/21/9 15/19/9
f 14/22/10 9/23/10 13/21/10
f 15/19/11 9/24/11 11/25/11
f 12/26/12 14/22/12 16/20/12
f 10/15/7 12/18/7 11/16/7
f 12/18/8 16/20/8 15/19/8
f 16/20/9 14/22/9 13/21/9
f 14/22/10 10/27/10 9/23/10
f 15/19/11 13/21/11 9/24/11
f 12/26/12 10/28/12 14/22/12
o Cube.002
vn -0.0000 -0.0000 -1.0000
vn -1.0000 -0.0000 -0.0000
vn -0.0000 -0.0000 1.0000
vn 1.0000 -0.0000 -0.0000
vn -0.0000 -1.0000 -0.0000
vn -0.0000 1.0000 -0.0000
vt 0.625000 0.000000
vt 0.375000 0.250000
vt 0.375000 0.000000
vt 0.625000 0.250000
vt 0.375000 0.500000
vt 0.625000 0.500000
vt 0.375000 0.750000
vt 0.625000 0.750000
vt 0.375000 1.000000
vt 0.125000 0.750000
vt 0.125000 0.500000
vt 0.875000 0.500000
vt 0.625000 1.000000
vt 0.875000 0.750000
s 0
f 18/29/13 17/31/13 19/30/13
f 20/32/14 19/30/14 23/33/14
f 24/34/15 23/33/15 21/35/15
f 22/36/16 21/35/16 17/37/16
f 23/33/17 19/39/17 17/38/17
f 20/40/18 24/34/18 22/36/18
f 18/29/13 19/30/13 20/32/13
f 20/32/14 23/33/14 24/34/14
f 24/34/15 21/35/15 22/36/15
f 22/36/16 17/37/16 18/41/16
f 23/33/17 17/38/17 21/35/17
f 20/40/18 22/36/18 18/42/18
o Cube.003
vn -0.0000 -0.0000 -1.0000
vn -1.0000 -0.0000 -0.0000
vn -0.0000 -0.0000 1.0000
vn 1.0000 -0.0000 -0.0000
vn -0.0000 -1.0000 -0.0000
vn -0.0000 1.0000 -0.0000
vt 0.625000 0.000000
vt 0.375000 0.250000
vt 0.375000 0.000000
vt 0.625000 0.250000
vt 0.375000 0.500000
vt 0.625000 0.500000
vt 0.375000 0.750000
vt 0.625000 0.750000
vt 0.375000 1.000000
vt 0.125000 0.750000
vt 0.125000 0.500000
vt 0.875000 0.500000
vt 0.625000 1.000000
vt 0.875000 0.750000
s 0
f 26/43/19 25/45/19 27/44/19
f 28/46/20 27/44/20 31/47/20
f 32/48/21 31/47/21 29/49/21
f 30/50/22 29/49/22 25/51/22
f 31/47/23 27/53/23 25/52/23
f 28/54/24 32/48/24 30/50/24
f 26/43/19 27/44/19 28/46/19
f 28/46/20 31/47/20 32/48/20
f 32/48/21 29/49/21 30/50/21
f 30/50/22 25/51/22 26/55/22
f 31/47/23 25/52/23 29/49/23
f 28/54/24 30/50/24 26/56/24
o Cube.004
vn -1.0000 -0.0000 -0.0000
vn -0.0000 -0.0000 1.0000
vn 1.0000 -0.0000 -0.0000
vn -0.0000 -0.0000 -1.0000
vn -0.0000 -1.0000 -0.0000
vn -0.0000 1.0000 -0.0000
vt 0.625000 0.000000
vt 0.375000 0.250000
vt 0.375000 0.000000
vt 0.625000 0.250000
vt 0.375000 0.500000
vt 0.625000 0.500000
vt 0.375000 0.750000
vt 0.625000 0.750000
vt 0.375000 1.000000
vt 0.125000 0.750000
vt 0.125000 0.500000
vt 0.875000 0.500000
vt 0.625000 1.000000
vt 0.875000 0.750000
s 0
f 34/57/25 33/59/25 35/58/25
f 36/60/26 35/58/26 39/61/26
f 40/62/27 39/61/27 37/63/27
f 38/64/28 37/63/28 33/65/28
f 39/61/29 35/67/29 33/66/29
f 36/68/30 40/62/30 38/64/30
f 34/57/25 35/58/25 36/60/25
f 36/60/26 39/61/26 40/62/26
f 40/62/27 37/63/27 38/64/27
f 38/64/28 33/65/28 34/69/28
f 39/61/29 33/66/29 37/63/29
f 36/68/30 38/64/30 34/70/30
o Cube.005
vn -0.0000 -0.0000 -1.0000
vn 1.0000 -0.0000 -0.0000
vn -0.0000 -0.0000 1.0000
vn -1.0000 -0.0000 -0.0000
vn -0.0000 -1.0000 -0.0000
vn -0.0000 1.0000 -0.0000
vt 0.625000 0.000000
vt 0.375000 0.250000
vt 0.375000 0.000000
vt 0.625000 0.250000
vt 0.375000 0.500000
vt 0.625000 0.500000
vt 0.375000 0.750000
vt 0.625000 0.750000
vt 0.375000 1.000000
vt 0.125000 0.750000
vt 0.125000 0.500000
vt 0.875000 0.500000
vt 0.625000 1.000000
vt 0.875000 0.750000
s 0
f 42/71/31 43/72/31 41/73/31
f 44/74/32 47/75/32 43/72/32
f 48/76/33 45/77/33 47/75/33
f 46/78/34 41/79/34 45/77/34
f 47/75/35 41/80/35 43/81/35
f 44/82/36 46/78/36 48/76/36
f 42/71/31 44/74/31 43/72/31
f 44/74/32 48/76/32 47/75/32
f 48/76/33 46/78/33 45/77/33
f 46/78/34 42/83/34 41/79/34
f 47/75/35 45/77/35 41/80/35
f 44/82/36 42/84/36 46/78/36
o Cube.006
vn -0.0000 -0.0000 -1.0000
vn -1.0000 -0.0000 -0.0000
vn -0.0000 -0.0000 1.0000
vn 1.0000 -0.0000 -0.0000
vn -0.0000 -1.0000 -0.0000
vn -0.0000 1.0000 -0.0000
vt 0.625000 0.000000
vt 0.375000 0.250000
vt 0.375000 0.000000
vt 0.625000 0.250000
vt 0.375000 0.500000
vt 0.625000 0.500000
vt 0.375000 0.750000
vt 0.625000 0.750000
vt 0.375000 1.000000
vt 0.125000 0.750000
vt 0.125000 0.500000
vt 0.875000 0.500000
vt 0.625000 1.000000
vt 0.875000 0.750000
s 0
f 50/85/37 49/87/37 51/86/37
f 52/88/38 51/86/38 55/89/38
f 56/90/39 55/89/39 53/91/39
f 54/92/40 53/91/40 49/93/40
f 55/89/41 51/95/41 49/94/41
f 52/96/42 56/90/42 54/92/42
f 50/85/37 51/86/37 52/88/37
f 52/88/38 55/89/38 56/90/38
f 56/90/39 53/91/39 54/92/39
f 54/92/40 49/93/40 50/97/40
f 55/89/41 49/94/41 53/91/41
f 52/96/42 54/92/42 50/98/42
o Cube.007
vn -1.0000 -0.0000 -0.0000
vn -0.0000 -0.0000 1.0000
vn 1.0000 -0.0000 -0.0000
vn -0.0000 -0.0000 -1.0000
vn -0.0000 -1.0000 -0.0000
vn -0.0000 1.0000 -0.0000
vt 0.625000 0.000000
vt 0.375000 0.250000
vt 0.375000 0.000000
vt 0.625000 0.250000
vt 0.375000 0.500000
vt 0.625000 0.500000
vt 0.375000 0.750000
vt 0.625000 0.750000
vt 0.375000 1.000000
vt 0.125000 0.750000
vt 0.125000 0.500000
vt 0.875000 0.500000
vt 0.625000 1.000000
vt 0.875000 0.750000
s 0
f 58/99/43 57/101/43 59/100/43
f 60/102/44 59/100/44 63/103/44
f 64/104/45 63/103/45 61/105/45
f 62/106/46 61/105/46 57/107/46
f 63/103/47 59/109/47 57/108/47
f 60/110/48 64/104/48 62/106/48
f 58/99/43 59/100/43 60/102/43
f 60/102/44 63/103/44 64/104/44
f 64/104/45 61/105/45 62/106/45
f 62/106/46 57/107/46 58/111/46
f 63/103/47 57/108/47 61/105/47
f 60/110/48 62/106/48 58/112/48
o Cube.008
vn -1.0000 -0.0000 -0.0000
vn -0.0000 -0.0000 1.0000
vn 1.0000 -0.0000 -0.0000
vn -0.0000 -0.0000 -1.0000
vn -0.0000 -1.0000 -0.0000
vn -0.0000 1.0000 -0.0000
vt 0.625000 0.000000
vt 0.375000 0.250000
vt 0.375000 0.000000
vt 0.625000 0.250000
vt 0.375000 0.500000
vt 0.625000 0.500000
vt 0.375000 0.750000
vt 0.625000 0.750000
vt 0.375000 1.000000
vt 0.125000 0.750000
vt 0.125000 0.500000
vt 0.875000 0.500000
vt 0.625000 1.000000
vt 0.875000 0.750000
s 0
f 66/113/49 65/115/49 67/114/49
f 68/116/50 67/114/50 71/117/50
f 72/118/51 71/117/51 69/119/51
f 70/120/52 69/119/52 65/121/52
f 71/117/53 67/123/53 65/122/53
f 68/124/54 72/118/54 70/120/54
f 66/113/49 67/114/49 68/116/49
f 68/116/50 71/117/50 72/118/50
f 72/118/51 69/119/51 70/120/51
f 70/120/52 65/121/52 66/125/52
f 71/117/53 65/122/53 69/119/53
f 68/124/54 70/120/54 66/126/54
o Cube.009
vn -0.0000 -0.0000 -1.0000
vn 1.0000 -0.0000 -0.0000
vn -0.0000 -0.0000 1.0000
vn -1.0000 -0.0000 -0.0000
vn -0.0000 -1.0000 -0.0000
vn -0.0000 1.0000 -0.0000
vt 0.625000 0.000000
vt 0.375000 0.250000
vt 0.375000 0.000000
vt 0.625000 0.250000
vt 0.375000 0.500000
vt 0.625000 0.500000
vt 0.375000 0.750000
vt 0.625000 0.750000
vt 0.375000 1.000000
vt 0.125000 0.750000
vt 0.125000 0.500000
vt 0.875000 0.500000
vt 0.625000 1.000000
vt 0.875000 0.750000
s 0
f 74/127/55 75/128/55 73/129/55
f 76/130/56 79/131/56 75/128/56
f 80/132/57 77/133/57 79/131/57
f 78/134/58 73/135/58 77/133/58
f 79/131/59 73/136/59 75/137/59
f 76/138/60 78/134/60 80/132/60
f 74/127/55 76/130/55 75/128/55
f 76/130/56 80/132/56 79/131/56
f 80/132/57 78/134/57 77/133/57
f 78/134/58 74/139/58 73/135/58
f 79/131/59 77/133/59 73/136/59
f 76/138/60 74/140/60 78/134/60
o Cube.010
vn -1.0000 -0.0000 -0.0000
vn -0.0000 -0.0000 1.0000
vn 1.0000 -0.0000 -0.0000
vn -0.0000 -0.0000 -1.0000
vn -0.0000 -1.0000 -0.0000
vn -0.0000 1.0000 -0.0000
vt 0.625000 0.000000
vt 0.375000 0.250000
vt 0.375000 0.000000
vt 0.625000 0.250000
vt 0.375000 0.500000
vt 0.625000 0.500000
vt 0.375000 0.750000
vt 0.625000 0.750000
vt 0.375000 1.000000
vt 0.125000 0.750000
vt 0.125000 0.500000
vt 0.875000 0.500000
vt 0.625000 1.000000
vt 0.875000 0.750000
s 0
f 82/141/61 81/143/61 83/142/61
f 84/144/62 83/142/62 87/145/62
f 88/146/63 87/145/63 85/147/63
f 86/148/64 85/147/64 81/149/64
f 87/145/65 83/151/65 81/150/65
f 84/152/66 88/146/66 86/148/66
f 82/141/61 83/142/61 84/144/61
f 84/144/62 87/145/62 88/146/62
f 88/146/63 85/147/63 86/148/63
f 86/148/64 81/149/64 82/153/64
f 87/145/65 81/150/65 85/147/65
f 84/152/66 86/148/66 82/154/66
o Cube.011
vn -1.0000 -0.0000 -0.0000
vn -0.0000 -0.0000 -1.0000
vn 1.0000 -0.0000 -0.0000
vn -0.0000 -0.0000 1.0000
vn -0.0000 -1.0000 -0.0000
vn -0.0000 1.0000 -0.0000
vt 0.625000 0.000000
vt 0.375000 0.250000
vt 0.375000 0.000000
vt 0.625000 0.250000
vt 0.375000 0.500000
vt 0.625000 0.500000
vt 0.375000 0.750000
vt 0.625000 0.750000
vt 0.375000 1.000000
vt 0.125000 0.750000
vt 0.125000 0.500000
vt 0.875000 0.500000
vt 0.625000 1.000000
vt 0.875000 0.750000
s 0
f 90/155/67 91/156/67 89/157/67
f 92/158/68 95/159/68 91/156/68
f 96/160/69 93/161/69 95/159/69
f 94/162/70 89/163/70 93/161/70
f 95/159/71 89/164/71 91/165/71
f 92/166/72 94/162/72 96/160/72
f 90/155/67 92/158/67 91/156/67
f 92/158/68 96/160/68 95/159/68
f 96/160/69 94/162/69 93/161/69
f 94/162/70 90/167/70 89/163/70
f 95/159/71 93/161/71 89/164/71
f 92/166/72 90/168/72 94/162/72
o Cube.012
vn -0.0000 -0.0000 -1.0000
vn -1.0000 -0.0000 -0.0000
vn -0.0000 -0.0000 1.0000
vn 1.0000 -0.0000 -0.0000
vn -0.0000 -1.0000 -0.0000
vn -0.0000 1.0000 -0.0000
vt 0.625000 0.000000
vt 0.375000 0.250000
vt 0.375000 0.000000
vt 0.625000 0.250000
vt 0.375000 0.500000
vt 0.625000 0.500000
vt 0.375000 0.750000
vt 0.625000 0.750000
vt 0.375000 1.000000
vt 0.125000 0.750000
vt 0.125000 0.500000
vt 0.875000 0.500000
vt 0.625000 1.000000
vt 0.875000 0.750000
s 0
f 98/169/73 97/171/73 99/170/73
f 100/172/74 99/170/74 103/173/74
f 104/174/75 103/173/75 101/175/75
f 102/176/76 101/175/76 97/177/76
f 103/173/77 99/179/77 97/178/77
f 100/180/78 104/174/78 102/176/78
f 98/169/73 99/170/73 100/172/73
f 100/172/74 103/173/74 104/174/74
f 104/174/75 101/175/75 102/176/75
f 102/176/76 97/177/76 98/181/76
f 103/173/77 97/178/77 101/175/77
f 100/180/78 102/176/78 98/182/78
